<svg xmlns="http://www.w3.org/2000/svg" xmlns:xlink="http://www.w3.org/1999/xlink" width="500" zoomAndPan="magnify" viewBox="0 0 375 374.999991" height="500" preserveAspectRatio="xMidYMid meet" version="1.0"><defs><clipPath id="1a059251fa"><path d="M 187.597656 81.492188 L 285.292969 81.492188 L 285.292969 179.230469 L 187.597656 179.230469 Z M 187.597656 81.492188 " clip-rule="nonzero"/></clipPath><clipPath id="e28ae3e856"><path d="M 125.21875 167.160156 L 234 167.160156 L 234 270.492188 L 125.21875 270.492188 Z M 125.21875 167.160156 " clip-rule="nonzero"/></clipPath></defs><g clip-path="url(#1a059251fa)"><path fill="#100f0d" d="M 283.617188 141.148438 C 282.015625 139.546875 279.699219 139.101562 277.695312 139.796875 C 274.578125 137.242188 269.3125 134.488281 261.007812 134.316406 C 252.4375 134.144531 245.695312 136.355469 241.453125 138.3125 C 240.113281 135.585938 238.3125 133.027344 236.046875 130.761719 C 233.78125 128.496094 231.226562 126.691406 228.503906 125.355469 C 230.453125 121.109375 232.667969 114.363281 232.492188 105.789062 C 232.324219 97.480469 229.566406 92.210938 227.015625 89.09375 C 227.710938 87.085938 227.265625 84.769531 225.664062 83.167969 C 223.433594 80.933594 219.816406 80.933594 217.582031 83.167969 C 215.351562 85.402344 215.351562 89.019531 217.582031 91.253906 C 219.324219 92.996094 221.90625 93.371094 224.019531 92.398438 C 225.925781 94.9375 227.941406 99.191406 228.078125 105.878906 C 228.238281 113.746094 226.128906 119.957031 224.375 123.71875 C 214.671875 120.734375 203.679688 123.078125 196.003906 130.761719 C 184.945312 141.824219 184.945312 159.761719 196.003906 170.828125 C 207.0625 181.890625 224.988281 181.890625 236.046875 170.828125 C 243.726562 163.144531 246.070312 152.148438 243.085938 142.4375 C 246.847656 140.683594 253.054688 138.574219 260.917969 138.734375 C 267.601562 138.871094 271.851562 140.890625 274.394531 142.796875 C 273.417969 144.910156 273.796875 147.492188 275.535156 149.234375 C 277.769531 151.46875 281.386719 151.46875 283.617188 149.234375 C 285.847656 147.003906 285.847656 143.382812 283.617188 141.148438 " fill-opacity="1" fill-rule="nonzero"/></g><path fill="#100f0d" d="M 194.113281 227.296875 C 221.28125 200.117188 231.089844 165.867188 216.023438 150.792969 C 200.960938 135.722656 166.726562 145.535156 139.5625 172.714844 C 112.394531 199.894531 102.589844 234.144531 117.652344 249.214844 C 132.71875 264.289062 166.949219 254.476562 194.113281 227.296875 " fill-opacity="1" fill-rule="nonzero"/><path fill="#e72224" d="M 108.570312 219.285156 C 106.433594 215.386719 107.015625 210.398438 110.316406 207.097656 C 111.742188 205.671875 113.484375 204.753906 115.316406 204.34375 C 119.105469 197.476562 123.894531 190.472656 129.585938 183.621094 C 127.679688 183.234375 125.863281 182.304688 124.386719 180.824219 C 120.378906 176.816406 120.378906 170.316406 124.386719 166.308594 C 128.390625 162.300781 134.886719 162.300781 138.894531 166.308594 C 140.1875 167.601562 141.0625 169.15625 141.519531 170.804688 C 147.902344 164.667969 154.527344 159.320312 161.152344 154.84375 C 161.472656 152.753906 162.433594 150.742188 164.042969 149.132812 C 166.984375 146.191406 171.265625 145.410156 174.921875 146.789062 C 183.625 142.480469 192.007812 139.84375 199.445312 139.09375 C 174.292969 127.109375 141.640625 132.890625 118.960938 155.585938 C 94.652344 179.902344 89.757812 215.671875 105.320312 241.394531 C 104.613281 234.945312 105.761719 227.386719 108.570312 219.285156 " fill-opacity="1" fill-rule="nonzero"/><g clip-path="url(#e28ae3e856)"><path fill="#b91d24" d="M 211.238281 247.910156 C 233.917969 225.214844 239.699219 192.546875 227.71875 167.378906 C 225.953125 184.914062 213.75 207.652344 193.808594 227.605469 C 170.601562 250.820312 143.632812 263.550781 125.472656 261.554688 C 151.179688 277.125 186.929688 272.226562 211.238281 247.910156 " fill-opacity="1" fill-rule="nonzero"/></g><path fill="#1a1817" d="M 164.042969 149.132812 C 162.433594 150.742188 161.472656 152.753906 161.152344 154.84375 C 165.773438 151.726562 170.390625 149.03125 174.921875 146.789062 C 171.265625 145.410156 166.984375 146.191406 164.042969 149.132812 " fill-opacity="1" fill-rule="nonzero"/><path fill="#1a1817" d="M 124.386719 166.308594 C 120.378906 170.316406 120.378906 176.816406 124.386719 180.824219 C 125.863281 182.304688 127.679688 183.234375 129.585938 183.621094 C 132.566406 180.035156 135.789062 176.484375 139.253906 173.023438 C 140.003906 172.273438 140.761719 171.535156 141.519531 170.804688 C 141.0625 169.15625 140.1875 167.601562 138.894531 166.308594 C 134.886719 162.300781 128.390625 162.300781 124.386719 166.308594 " fill-opacity="1" fill-rule="nonzero"/><path fill="#1a1817" d="M 108.570312 219.285156 C 110.242188 214.457031 112.503906 209.4375 115.316406 204.34375 C 113.484375 204.753906 111.742188 205.671875 110.316406 207.097656 C 107.015625 210.398438 106.433594 215.386719 108.570312 219.285156 " fill-opacity="1" fill-rule="nonzero"/><path fill="#cc1e25" d="M 208.347656 154.703125 C 211.542969 151.503906 211.085938 146.15625 207.347656 143.617188 C 204.816406 141.898438 202.175781 140.390625 199.445312 139.09375 C 192.007812 139.84375 183.625 142.480469 174.921875 146.789062 C 176.242188 147.289062 177.484375 148.066406 178.550781 149.132812 C 182.558594 153.140625 182.558594 159.640625 178.550781 163.648438 C 174.542969 167.660156 168.046875 167.660156 164.042969 163.648438 C 161.644531 161.25 160.683594 157.960938 161.152344 154.84375 C 154.527344 159.320312 147.902344 164.667969 141.519531 170.804688 C 142.480469 174.253906 141.609375 178.109375 138.894531 180.824219 C 136.367188 183.355469 132.84375 184.285156 129.585938 183.621094 C 123.894531 190.472656 119.105469 197.476562 115.316406 204.34375 C 118.632812 203.597656 122.242188 204.515625 124.824219 207.097656 C 128.828125 211.105469 128.832031 217.605469 124.824219 221.613281 C 120.816406 225.621094 114.320312 225.621094 110.316406 221.613281 C 109.609375 220.90625 109.027344 220.121094 108.570312 219.285156 C 105.761719 227.386719 104.613281 234.945312 105.320312 241.394531 C 107.320312 244.699219 109.652344 247.839844 112.332031 250.765625 L 208.347656 154.703125 " fill-opacity="1" fill-rule="nonzero"/><path fill="#cc1e25" d="M 193.808594 227.605469 C 213.75 207.652344 225.953125 184.914062 227.71875 167.378906 C 226.421875 164.652344 224.917969 162.007812 223.199219 159.476562 C 220.65625 155.734375 215.3125 155.28125 212.117188 158.476562 L 116.105469 254.539062 C 119.03125 257.21875 122.167969 259.554688 125.472656 261.554688 C 143.632812 263.550781 170.601562 250.820312 193.808594 227.605469 " fill-opacity="1" fill-rule="nonzero"/><path fill="#100f0d" d="M 164.042969 163.648438 C 168.046875 167.660156 174.542969 167.660156 178.550781 163.648438 C 182.558594 159.640625 182.558594 153.140625 178.550781 149.132812 C 177.484375 148.066406 176.242188 147.289062 174.921875 146.789062 C 170.390625 149.03125 165.773438 151.726562 161.152344 154.84375 C 160.683594 157.960938 161.644531 161.25 164.042969 163.648438 " fill-opacity="1" fill-rule="nonzero"/><path fill="#100f0d" d="M 129.585938 183.621094 C 132.84375 184.285156 136.367188 183.355469 138.894531 180.824219 C 141.609375 178.109375 142.480469 174.253906 141.519531 170.804688 C 140.761719 171.535156 140.003906 172.273438 139.253906 173.023438 C 135.789062 176.484375 132.566406 180.035156 129.585938 183.621094 " fill-opacity="1" fill-rule="nonzero"/><path fill="#100f0d" d="M 110.316406 221.613281 C 114.320312 225.621094 120.816406 225.621094 124.824219 221.613281 C 128.832031 217.605469 128.828125 211.105469 124.824219 207.097656 C 122.242188 204.515625 118.632812 203.597656 115.316406 204.34375 C 112.503906 209.4375 110.242188 214.457031 108.570312 219.285156 C 109.027344 220.121094 109.609375 220.90625 110.316406 221.613281 " fill-opacity="1" fill-rule="nonzero"/><path fill="#100f0d" d="M 218.179688 202.308594 C 222.1875 198.300781 222.1875 191.800781 218.179688 187.792969 C 214.175781 183.78125 207.679688 183.78125 203.671875 187.792969 C 199.664062 191.800781 199.664062 198.300781 203.671875 202.308594 C 207.679688 206.316406 214.175781 206.316406 218.179688 202.308594 " fill-opacity="1" fill-rule="nonzero"/><path fill="#100f0d" d="M 201.015625 241.984375 C 205.019531 237.976562 205.019531 231.476562 201.015625 227.464844 C 197.007812 223.457031 190.511719 223.457031 186.503906 227.464844 C 182.5 231.476562 182.5 237.976562 186.503906 241.984375 C 190.511719 245.992188 197.007812 245.992188 201.015625 241.984375 " fill-opacity="1" fill-rule="nonzero"/><path fill="#100f0d" d="M 160.246094 256.0625 C 164.253906 252.054688 164.253906 245.554688 160.246094 241.542969 C 156.238281 237.535156 149.746094 237.535156 145.738281 241.542969 C 141.730469 245.554688 141.730469 252.054688 145.738281 256.0625 C 149.746094 260.070312 156.238281 260.070312 160.246094 256.0625 " fill-opacity="1" fill-rule="nonzero"/></svg>