<svg xmlns="http://www.w3.org/2000/svg" xmlns:xlink="http://www.w3.org/1999/xlink" width="275" zoomAndPan="magnify" viewBox="0 0 206.25 46.499999" height="62" preserveAspectRatio="xMidYMid meet" version="1.0"><defs><g/><clipPath id="44aca8c6f8"><path d="M 20 3.273438 L 47.875 3.273438 L 47.875 31 L 20 31 Z M 20 3.273438 " clip-rule="nonzero"/></clipPath><clipPath id="43982033f2"><path d="M 9.289062 26 L 26 26 L 26 42.597656 L 9.289062 42.597656 Z M 9.289062 26 " clip-rule="nonzero"/></clipPath><clipPath id="4a941e7dc6"><path d="M 9.289062 3.273438 L 47.875 3.273438 L 47.875 42.597656 L 9.289062 42.597656 Z M 9.289062 3.273438 " clip-rule="nonzero"/></clipPath></defs><path fill="#349370" d="M 22.996094 9.070312 L 15.792969 9.070312 C 14.175781 9.070312 12.859375 10.375 12.859375 11.988281 L 12.859375 30.015625 C 12.859375 31.394531 13.828125 32.550781 15.125 32.851562 L 22.984375 32.929688 L 34.484375 32.929688 L 38.808594 37.765625 L 38.808594 32.929688 L 42.359375 32.929688 C 43.980469 32.929688 45.292969 31.625 45.292969 30.015625 L 45.292969 24.617188 Z M 22.996094 9.070312 " fill-opacity="1" fill-rule="nonzero"/><g clip-path="url(#44aca8c6f8)"><path fill="#8ecaef" d="M 47.5625 17.132812 C 47.5625 19.898438 46.726562 22.472656 45.292969 24.617188 C 42.851562 28.265625 38.679688 30.671875 33.941406 30.671875 C 31.0625 30.671875 28.390625 29.785156 26.191406 28.265625 C 25.222656 27.601562 24.347656 26.816406 23.585938 25.929688 C 21.550781 23.5625 20.320312 20.488281 20.320312 17.132812 C 20.320312 14.113281 21.316406 11.324219 22.996094 9.070312 C 25.476562 5.746094 29.457031 3.589844 33.941406 3.589844 C 41.464844 3.589844 47.5625 9.652344 47.5625 17.132812 Z M 47.5625 17.132812 " fill-opacity="1" fill-rule="nonzero"/></g><path fill="#c2e6f9" d="M 44.96875 17.132812 C 44.96875 23.183594 40.03125 28.09375 33.941406 28.09375 C 27.851562 28.09375 22.914062 23.183594 22.914062 17.132812 C 22.914062 11.078125 27.851562 6.167969 33.941406 6.167969 C 40.03125 6.167969 44.96875 11.078125 44.96875 17.132812 Z M 44.96875 17.132812 " fill-opacity="1" fill-rule="nonzero"/><path fill="#c84242" d="M 33.941406 19.710938 C 34.390625 19.710938 34.753906 20.070312 34.753906 20.515625 C 34.753906 20.960938 34.390625 21.324219 33.941406 21.324219 C 33.492188 21.324219 33.132812 20.960938 33.132812 20.515625 C 33.132812 20.070312 33.492188 19.710938 33.941406 19.710938 Z M 33.941406 19.710938 " fill-opacity="1" fill-rule="nonzero"/><path fill="#c84242" d="M 34.914062 11.328125 L 34.589844 18.421875 L 33.292969 18.421875 L 32.96875 11.328125 Z M 34.914062 11.328125 " fill-opacity="1" fill-rule="nonzero"/><path fill="#f9b132" d="M 41.886719 20.382812 C 42.539062 21.519531 41.710938 22.933594 40.394531 22.933594 L 27.492188 22.933594 C 26.171875 22.933594 25.34375 21.519531 25.996094 20.382812 L 32.449219 9.101562 C 33.105469 7.953125 34.777344 7.953125 35.4375 9.101562 Z M 34.589844 18.421875 L 34.914062 11.328125 L 32.96875 11.328125 L 33.292969 18.421875 Z M 34.753906 20.515625 C 34.753906 20.070312 34.390625 19.710938 33.941406 19.710938 C 33.492188 19.710938 33.132812 20.070312 33.132812 20.515625 C 33.132812 20.960938 33.492188 21.324219 33.941406 21.324219 C 34.390625 21.324219 34.753906 20.960938 34.753906 20.515625 Z M 34.753906 20.515625 " fill-opacity="1" fill-rule="nonzero"/><path fill="#52a7d7" d="M 26.191406 28.265625 L 24.304688 30.140625 L 21.828125 27.675781 L 23.585938 25.929688 C 24.347656 26.816406 25.222656 27.601562 26.191406 28.265625 Z M 26.191406 28.265625 " fill-opacity="1" fill-rule="nonzero"/><g clip-path="url(#43982033f2)"><path fill="#8ecaef" d="M 15.125 32.851562 L 21.085938 26.9375 L 21.828125 27.675781 L 24.304688 30.140625 L 25.046875 30.882812 L 22.984375 32.929688 L 14.382812 41.46875 C 13.289062 42.554688 11.515625 42.554688 10.421875 41.464844 C 9.324219 40.375 9.328125 38.609375 10.421875 37.523438 Z M 15.125 32.851562 " fill-opacity="1" fill-rule="nonzero"/></g><path fill="#3a322b" d="M 33.941406 5.855469 C 27.691406 5.855469 22.605469 10.914062 22.605469 17.132812 C 22.605469 23.347656 27.691406 28.40625 33.941406 28.40625 C 40.195312 28.40625 45.28125 23.347656 45.28125 17.132812 C 45.28125 10.914062 40.195312 5.855469 33.941406 5.855469 Z M 33.941406 27.78125 C 28.035156 27.78125 23.226562 23.003906 23.226562 17.132812 C 23.226562 11.257812 28.035156 6.480469 33.941406 6.480469 C 39.851562 6.480469 44.65625 11.257812 44.65625 17.132812 C 44.65625 23.003906 39.851562 27.78125 33.941406 27.78125 Z M 33.941406 27.78125 " fill-opacity="1" fill-rule="nonzero"/><path fill="#3a322b" d="M 42.15625 20.226562 L 35.707031 8.949219 C 35.339844 8.308594 34.679688 7.925781 33.941406 7.925781 C 33.203125 7.925781 32.542969 8.308594 32.179688 8.949219 L 25.726562 20.226562 C 25.367188 20.855469 25.367188 21.605469 25.730469 22.234375 C 26.097656 22.867188 26.753906 23.246094 27.492188 23.246094 L 40.394531 23.246094 C 41.128906 23.246094 41.785156 22.867188 42.152344 22.234375 C 42.515625 21.605469 42.515625 20.855469 42.15625 20.226562 Z M 41.613281 21.921875 C 41.359375 22.359375 40.902344 22.621094 40.394531 22.621094 L 27.492188 22.621094 C 26.980469 22.621094 26.523438 22.359375 26.269531 21.921875 C 26.019531 21.488281 26.019531 20.96875 26.265625 20.539062 L 32.71875 9.257812 C 32.972656 8.816406 33.429688 8.550781 33.941406 8.550781 C 34.453125 8.550781 34.914062 8.816406 35.164062 9.257812 L 41.617188 20.539062 C 41.867188 20.972656 41.863281 21.488281 41.613281 21.921875 Z M 41.613281 21.921875 " fill-opacity="1" fill-rule="nonzero"/><path fill="#3a322b" d="M 34.914062 11.015625 L 32.96875 11.015625 C 32.882812 11.015625 32.800781 11.050781 32.742188 11.113281 C 32.683594 11.171875 32.652344 11.257812 32.65625 11.34375 L 32.980469 18.433594 C 32.988281 18.601562 33.125 18.734375 33.292969 18.734375 L 34.589844 18.734375 C 34.757812 18.734375 34.894531 18.601562 34.902344 18.433594 L 35.226562 11.34375 C 35.230469 11.257812 35.199219 11.171875 35.140625 11.113281 C 35.082031 11.050781 35 11.015625 34.914062 11.015625 Z M 34.292969 18.109375 L 33.589844 18.109375 L 33.292969 11.640625 L 34.589844 11.640625 Z M 34.292969 18.109375 " fill-opacity="1" fill-rule="nonzero"/><path fill="#3a322b" d="M 33.941406 19.398438 C 33.324219 19.398438 32.820312 19.898438 32.820312 20.515625 C 32.820312 21.132812 33.324219 21.632812 33.941406 21.632812 C 34.5625 21.632812 35.0625 21.132812 35.0625 20.515625 C 35.0625 19.898438 34.5625 19.398438 33.941406 19.398438 Z M 33.941406 21.011719 C 33.667969 21.011719 33.441406 20.789062 33.441406 20.515625 C 33.441406 20.242188 33.667969 20.023438 33.941406 20.023438 C 34.21875 20.023438 34.441406 20.242188 34.441406 20.515625 C 34.441406 20.789062 34.21875 21.011719 33.941406 21.011719 Z M 33.941406 21.011719 " fill-opacity="1" fill-rule="nonzero"/><g clip-path="url(#4a941e7dc6)"><path fill="#3a322b" d="M 33.941406 3.277344 C 29.421875 3.277344 25.398438 5.429688 22.847656 8.757812 L 15.792969 8.757812 C 14.003906 8.757812 12.550781 10.207031 12.550781 11.984375 L 12.550781 30.011719 C 12.550781 31.339844 13.347656 32.5 14.542969 32.992188 L 10.203125 37.300781 C 9.613281 37.886719 9.289062 38.664062 9.289062 39.492188 C 9.289062 40.320312 9.613281 41.101562 10.203125 41.6875 C 10.808594 42.289062 11.605469 42.59375 12.402344 42.59375 C 13.199219 42.59375 13.996094 42.292969 14.601562 41.6875 L 23.113281 33.242188 L 34.34375 33.242188 L 38.574219 37.972656 C 38.667969 38.054688 38.78125 38.082031 38.917969 38.054688 C 39.039062 38.011719 39.117188 37.894531 39.117188 37.765625 L 39.117188 33.242188 L 42.359375 33.242188 C 44.148438 33.242188 45.605469 31.792969 45.605469 30.011719 L 45.605469 24.703125 C 47.039062 22.523438 47.875 19.921875 47.875 17.132812 C 47.875 9.492188 41.625 3.277344 33.941406 3.277344 Z M 13.171875 30.011719 L 13.171875 11.984375 C 13.171875 10.550781 14.347656 9.382812 15.792969 9.382812 L 22.398438 9.382812 C 20.890625 11.597656 20.007812 14.261719 20.007812 17.132812 C 20.007812 20.457031 21.195312 23.515625 23.167969 25.90625 L 21.828125 27.238281 L 21.304688 26.714844 C 21.183594 26.59375 20.988281 26.59375 20.867188 26.714844 L 15.035156 32.503906 C 13.929688 32.175781 13.171875 31.175781 13.171875 30.011719 Z M 23.578125 26.378906 C 24.21875 27.089844 24.9375 27.734375 25.714844 28.300781 L 24.304688 29.703125 L 22.269531 27.675781 Z M 22.761719 32.707031 L 14.164062 41.246094 C 13.191406 42.210938 11.609375 42.210938 10.640625 41.242188 C 10.171875 40.777344 9.910156 40.152344 9.910156 39.492188 C 9.914062 38.832031 10.171875 38.210938 10.640625 37.742188 L 21.082031 27.378906 L 24.605469 30.882812 Z M 44.980469 30.011719 C 44.980469 31.449219 43.804688 32.617188 42.359375 32.617188 L 38.808594 32.617188 C 38.636719 32.617188 38.496094 32.757812 38.496094 32.929688 L 38.496094 36.949219 L 34.617188 32.617188 L 23.742188 32.617188 L 25.265625 31.101562 C 25.324219 31.042969 25.355469 30.964844 25.355469 30.882812 C 25.355469 30.796875 25.324219 30.71875 25.265625 30.660156 L 24.746094 30.140625 L 26.234375 28.664062 C 28.441406 30.128906 31.09375 30.984375 33.941406 30.984375 C 38.433594 30.984375 42.433594 28.859375 44.980469 25.570312 Z M 33.941406 30.359375 C 26.601562 30.359375 20.632812 24.425781 20.632812 17.132812 C 20.632812 9.835938 26.601562 3.902344 33.941406 3.902344 C 41.28125 3.902344 47.253906 9.835938 47.253906 17.132812 C 47.253906 24.425781 41.28125 30.359375 33.941406 30.359375 Z M 33.941406 30.359375 " fill-opacity="1" fill-rule="nonzero"/></g><g fill="#000000" fill-opacity="1"><g transform="translate(52.351463, 32.277923)"><g><path d="M 7.140625 0.15625 C 6.773438 0.15625 6.378906 0.144531 5.953125 0.125 C 5.523438 0.113281 5.097656 0.0859375 4.671875 0.046875 C 4.242188 0.015625 3.816406 -0.0234375 3.390625 -0.078125 C 2.972656 -0.128906 2.59375 -0.195312 2.25 -0.28125 L 2.25 -17.859375 C 2.59375 -17.953125 2.972656 -18.023438 3.390625 -18.078125 C 3.816406 -18.128906 4.242188 -18.171875 4.671875 -18.203125 C 5.097656 -18.234375 5.519531 -18.257812 5.9375 -18.28125 C 6.351562 -18.300781 6.742188 -18.3125 7.109375 -18.3125 C 8.160156 -18.3125 9.144531 -18.234375 10.0625 -18.078125 C 10.976562 -17.921875 11.769531 -17.65625 12.4375 -17.28125 C 13.101562 -16.90625 13.628906 -16.410156 14.015625 -15.796875 C 14.398438 -15.191406 14.59375 -14.441406 14.59375 -13.546875 C 14.59375 -12.554688 14.359375 -11.742188 13.890625 -11.109375 C 13.421875 -10.472656 12.789062 -9.992188 12 -9.671875 C 13.0625 -9.359375 13.90625 -8.863281 14.53125 -8.1875 C 15.164062 -7.507812 15.484375 -6.550781 15.484375 -5.3125 C 15.484375 -3.5 14.816406 -2.132812 13.484375 -1.21875 C 12.148438 -0.300781 10.035156 0.15625 7.140625 0.15625 Z M 4.765625 -8.453125 L 4.765625 -2.0625 C 4.953125 -2.050781 5.175781 -2.035156 5.4375 -2.015625 C 5.664062 -1.992188 5.929688 -1.976562 6.234375 -1.96875 C 6.546875 -1.96875 6.898438 -1.96875 7.296875 -1.96875 C 8.046875 -1.96875 8.753906 -2.015625 9.421875 -2.109375 C 10.097656 -2.203125 10.6875 -2.367188 11.1875 -2.609375 C 11.695312 -2.859375 12.101562 -3.203125 12.40625 -3.640625 C 12.71875 -4.078125 12.875 -4.625 12.875 -5.28125 C 12.875 -5.875 12.757812 -6.375 12.53125 -6.78125 C 12.300781 -7.195312 11.972656 -7.523438 11.546875 -7.765625 C 11.117188 -8.015625 10.609375 -8.191406 10.015625 -8.296875 C 9.421875 -8.398438 8.757812 -8.453125 8.03125 -8.453125 Z M 4.765625 -10.484375 L 7.421875 -10.484375 C 8.054688 -10.484375 8.648438 -10.523438 9.203125 -10.609375 C 9.765625 -10.703125 10.25 -10.863281 10.65625 -11.09375 C 11.0625 -11.320312 11.382812 -11.617188 11.625 -11.984375 C 11.863281 -12.347656 11.984375 -12.804688 11.984375 -13.359375 C 11.984375 -13.890625 11.859375 -14.332031 11.609375 -14.6875 C 11.367188 -15.039062 11.035156 -15.328125 10.609375 -15.546875 C 10.179688 -15.765625 9.675781 -15.925781 9.09375 -16.03125 C 8.519531 -16.132812 7.910156 -16.1875 7.265625 -16.1875 C 6.617188 -16.1875 6.113281 -16.175781 5.75 -16.15625 C 5.382812 -16.144531 5.054688 -16.125 4.765625 -16.09375 Z M 4.765625 -10.484375 "/></g></g></g><g fill="#000000" fill-opacity="1"><g transform="translate(69.169901, 32.277923)"><g><path d="M 12.921875 -0.390625 C 12.359375 -0.253906 11.617188 -0.109375 10.703125 0.046875 C 9.796875 0.203125 8.738281 0.28125 7.53125 0.28125 C 6.488281 0.28125 5.609375 0.128906 4.890625 -0.171875 C 4.171875 -0.472656 3.59375 -0.898438 3.15625 -1.453125 C 2.726562 -2.015625 2.414062 -2.675781 2.21875 -3.4375 C 2.03125 -4.195312 1.9375 -5.039062 1.9375 -5.96875 L 1.9375 -13.59375 L 4.375 -13.59375 L 4.375 -6.484375 C 4.375 -4.828125 4.632812 -3.640625 5.15625 -2.921875 C 5.675781 -2.210938 6.554688 -1.859375 7.796875 -1.859375 C 8.054688 -1.859375 8.328125 -1.863281 8.609375 -1.875 C 8.890625 -1.894531 9.148438 -1.914062 9.390625 -1.9375 C 9.628906 -1.96875 9.847656 -1.992188 10.046875 -2.015625 C 10.253906 -2.046875 10.398438 -2.082031 10.484375 -2.125 L 10.484375 -13.59375 L 12.921875 -13.59375 Z M 12.921875 -0.390625 "/></g></g></g><g fill="#000000" fill-opacity="1"><g transform="translate(84.183569, 32.277923)"><g><path d="M 10.625 -1.359375 C 10.414062 -1.222656 10.007812 -1.046875 9.40625 -0.828125 C 8.800781 -0.609375 8.097656 -0.5 7.296875 -0.5 C 6.472656 -0.5 5.695312 -0.628906 4.96875 -0.890625 C 4.25 -1.148438 3.617188 -1.550781 3.078125 -2.09375 C 2.546875 -2.644531 2.117188 -3.332031 1.796875 -4.15625 C 1.484375 -4.976562 1.328125 -5.957031 1.328125 -7.09375 C 1.328125 -8.082031 1.472656 -8.988281 1.765625 -9.8125 C 2.066406 -10.644531 2.5 -11.363281 3.0625 -11.96875 C 3.632812 -12.570312 4.328125 -13.039062 5.140625 -13.375 C 5.960938 -13.71875 6.890625 -13.890625 7.921875 -13.890625 C 9.054688 -13.890625 10.046875 -13.804688 10.890625 -13.640625 C 11.734375 -13.472656 12.445312 -13.320312 13.03125 -13.1875 L 13.03125 -1.046875 C 13.03125 1.046875 12.488281 2.5625 11.40625 3.5 C 10.320312 4.445312 8.679688 4.921875 6.484375 4.921875 C 5.628906 4.921875 4.820312 4.847656 4.0625 4.703125 C 3.300781 4.566406 2.644531 4.40625 2.09375 4.21875 L 2.53125 2.09375 C 3.019531 2.28125 3.617188 2.445312 4.328125 2.59375 C 5.035156 2.75 5.769531 2.828125 6.53125 2.828125 C 7.976562 2.828125 9.019531 2.535156 9.65625 1.953125 C 10.300781 1.378906 10.625 0.46875 10.625 -0.78125 Z M 10.59375 -11.453125 C 10.351562 -11.523438 10.023438 -11.59375 9.609375 -11.65625 C 9.203125 -11.71875 8.648438 -11.75 7.953125 -11.75 C 6.640625 -11.75 5.628906 -11.320312 4.921875 -10.46875 C 4.222656 -9.613281 3.875 -8.476562 3.875 -7.0625 C 3.875 -6.28125 3.972656 -5.609375 4.171875 -5.046875 C 4.367188 -4.492188 4.640625 -4.03125 4.984375 -3.65625 C 5.328125 -3.289062 5.71875 -3.019531 6.15625 -2.84375 C 6.601562 -2.675781 7.0625 -2.59375 7.53125 -2.59375 C 8.175781 -2.59375 8.769531 -2.679688 9.3125 -2.859375 C 9.851562 -3.046875 10.28125 -3.257812 10.59375 -3.5 Z M 10.59375 -11.453125 "/></g></g></g><g fill="#000000" fill-opacity="1"><g transform="translate(99.301855, 32.277923)"><g/></g></g><g fill="#000000" fill-opacity="1"><g transform="translate(105.343934, 32.277923)"><g><path d="M 14.359375 -18.125 L 14.359375 -15.921875 L 8.65625 -15.921875 L 8.65625 0 L 6.125 0 L 6.125 -15.921875 L 0.421875 -15.921875 L 0.421875 -18.125 Z M 14.359375 -18.125 "/></g></g></g><g fill="#000000" fill-opacity="1"><g transform="translate(120.122187, 32.277923)"><g><path d="M 7.109375 -13.890625 C 7.316406 -13.890625 7.554688 -13.875 7.828125 -13.84375 C 8.097656 -13.820312 8.363281 -13.785156 8.625 -13.734375 C 8.894531 -13.691406 9.132812 -13.648438 9.34375 -13.609375 C 9.5625 -13.566406 9.722656 -13.53125 9.828125 -13.5 L 9.421875 -11.375 C 9.222656 -11.445312 8.898438 -11.53125 8.453125 -11.625 C 8.015625 -11.71875 7.445312 -11.765625 6.75 -11.765625 C 6.289062 -11.765625 5.835938 -11.71875 5.390625 -11.625 C 4.953125 -11.53125 4.664062 -11.46875 4.53125 -11.4375 L 4.53125 0 L 2.09375 0 L 2.09375 -13.03125 C 2.664062 -13.238281 3.378906 -13.429688 4.234375 -13.609375 C 5.085938 -13.796875 6.046875 -13.890625 7.109375 -13.890625 Z M 7.109375 -13.890625 "/></g></g></g><g fill="#000000" fill-opacity="1"><g transform="translate(130.218481, 32.277923)"><g><path d="M 6.703125 -1.75 C 7.273438 -1.75 7.78125 -1.757812 8.21875 -1.78125 C 8.664062 -1.8125 9.039062 -1.863281 9.34375 -1.9375 L 9.34375 -5.984375 C 9.164062 -6.078125 8.878906 -6.148438 8.484375 -6.203125 C 8.097656 -6.265625 7.625 -6.296875 7.0625 -6.296875 C 6.695312 -6.296875 6.304688 -6.269531 5.890625 -6.21875 C 5.484375 -6.164062 5.109375 -6.054688 4.765625 -5.890625 C 4.429688 -5.734375 4.148438 -5.507812 3.921875 -5.21875 C 3.691406 -4.925781 3.578125 -4.546875 3.578125 -4.078125 C 3.578125 -3.203125 3.851562 -2.59375 4.40625 -2.25 C 4.96875 -1.914062 5.734375 -1.75 6.703125 -1.75 Z M 6.484375 -13.9375 C 7.460938 -13.9375 8.285156 -13.8125 8.953125 -13.5625 C 9.628906 -13.3125 10.171875 -12.953125 10.578125 -12.484375 C 10.984375 -12.023438 11.273438 -11.476562 11.453125 -10.84375 C 11.628906 -10.207031 11.71875 -9.503906 11.71875 -8.734375 L 11.71875 -0.234375 C 11.507812 -0.203125 11.21875 -0.15625 10.84375 -0.09375 C 10.46875 -0.03125 10.039062 0.0234375 9.5625 0.078125 C 9.09375 0.128906 8.582031 0.175781 8.03125 0.21875 C 7.488281 0.257812 6.945312 0.28125 6.40625 0.28125 C 5.632812 0.28125 4.925781 0.203125 4.28125 0.046875 C 3.644531 -0.109375 3.085938 -0.351562 2.609375 -0.6875 C 2.140625 -1.03125 1.773438 -1.476562 1.515625 -2.03125 C 1.253906 -2.59375 1.125 -3.265625 1.125 -4.046875 C 1.125 -4.796875 1.273438 -5.441406 1.578125 -5.984375 C 1.890625 -6.523438 2.304688 -6.960938 2.828125 -7.296875 C 3.347656 -7.628906 3.957031 -7.875 4.65625 -8.03125 C 5.351562 -8.1875 6.085938 -8.265625 6.859375 -8.265625 C 7.097656 -8.265625 7.347656 -8.25 7.609375 -8.21875 C 7.867188 -8.195312 8.113281 -8.164062 8.34375 -8.125 C 8.582031 -8.082031 8.789062 -8.039062 8.96875 -8 C 9.144531 -7.96875 9.269531 -7.941406 9.34375 -7.921875 L 9.34375 -8.609375 C 9.34375 -9.003906 9.296875 -9.398438 9.203125 -9.796875 C 9.117188 -10.191406 8.960938 -10.539062 8.734375 -10.84375 C 8.503906 -11.144531 8.191406 -11.382812 7.796875 -11.5625 C 7.410156 -11.75 6.90625 -11.84375 6.28125 -11.84375 C 5.476562 -11.84375 4.773438 -11.785156 4.171875 -11.671875 C 3.566406 -11.566406 3.117188 -11.453125 2.828125 -11.328125 L 2.53125 -13.34375 C 2.851562 -13.476562 3.378906 -13.609375 4.109375 -13.734375 C 4.835938 -13.867188 5.628906 -13.9375 6.484375 -13.9375 Z M 6.484375 -13.9375 "/></g></g></g><g fill="#000000" fill-opacity="1"><g transform="translate(143.872018, 32.277923)"><g><path d="M 8 0.3125 C 6.90625 0.3125 5.941406 0.140625 5.109375 -0.203125 C 4.285156 -0.554688 3.585938 -1.046875 3.015625 -1.671875 C 2.453125 -2.296875 2.03125 -3.039062 1.75 -3.90625 C 1.46875 -4.769531 1.328125 -5.726562 1.328125 -6.78125 C 1.328125 -7.820312 1.476562 -8.773438 1.78125 -9.640625 C 2.09375 -10.515625 2.523438 -11.269531 3.078125 -11.90625 C 3.640625 -12.550781 4.328125 -13.050781 5.140625 -13.40625 C 5.953125 -13.757812 6.851562 -13.9375 7.84375 -13.9375 C 8.457031 -13.9375 9.066406 -13.882812 9.671875 -13.78125 C 10.285156 -13.675781 10.875 -13.507812 11.4375 -13.28125 L 10.875 -11.21875 C 10.507812 -11.394531 10.085938 -11.535156 9.609375 -11.640625 C 9.128906 -11.742188 8.617188 -11.796875 8.078125 -11.796875 C 6.722656 -11.796875 5.679688 -11.367188 4.953125 -10.515625 C 4.234375 -9.660156 3.875 -8.414062 3.875 -6.78125 C 3.875 -6.039062 3.957031 -5.363281 4.125 -4.75 C 4.289062 -4.144531 4.550781 -3.625 4.90625 -3.1875 C 5.257812 -2.75 5.710938 -2.410156 6.265625 -2.171875 C 6.828125 -1.941406 7.507812 -1.828125 8.3125 -1.828125 C 8.957031 -1.828125 9.539062 -1.890625 10.0625 -2.015625 C 10.59375 -2.140625 11.003906 -2.269531 11.296875 -2.40625 L 11.640625 -0.359375 C 11.503906 -0.273438 11.300781 -0.191406 11.03125 -0.109375 C 10.769531 -0.0351562 10.472656 0.03125 10.140625 0.09375 C 9.816406 0.15625 9.46875 0.207031 9.09375 0.25 C 8.71875 0.289062 8.351562 0.3125 8 0.3125 Z M 8 0.3125 "/></g></g></g><g fill="#000000" fill-opacity="1"><g transform="translate(156.034651, 32.277923)"><g><path d="M 7.015625 -7.484375 C 7.535156 -7.078125 8.085938 -6.578125 8.671875 -5.984375 C 9.253906 -5.390625 9.828125 -4.75 10.390625 -4.0625 C 10.960938 -3.375 11.5 -2.675781 12 -1.96875 C 12.507812 -1.269531 12.9375 -0.613281 13.28125 0 L 10.4375 0 C 10.070312 -0.613281 9.648438 -1.238281 9.171875 -1.875 C 8.691406 -2.507812 8.1875 -3.117188 7.65625 -3.703125 C 7.132812 -4.285156 6.601562 -4.820312 6.0625 -5.3125 C 5.519531 -5.800781 5.007812 -6.207031 4.53125 -6.53125 L 4.53125 0 L 2.09375 0 L 2.09375 -19.875 L 4.53125 -20.296875 L 4.53125 -7.90625 C 4.945312 -8.320312 5.40625 -8.78125 5.90625 -9.28125 C 6.414062 -9.789062 6.914062 -10.304688 7.40625 -10.828125 C 7.894531 -11.347656 8.351562 -11.847656 8.78125 -12.328125 C 9.21875 -12.804688 9.59375 -13.226562 9.90625 -13.59375 L 12.765625 -13.59375 C 12.359375 -13.164062 11.921875 -12.6875 11.453125 -12.15625 C 10.984375 -11.632812 10.492188 -11.109375 9.984375 -10.578125 C 9.484375 -10.046875 8.972656 -9.515625 8.453125 -8.984375 C 7.941406 -8.453125 7.460938 -7.953125 7.015625 -7.484375 Z M 7.015625 -7.484375 "/></g></g></g><g fill="#000000" fill-opacity="1"><g transform="translate(169.688188, 32.277923)"><g><path d="M 1.328125 -6.78125 C 1.328125 -7.976562 1.5 -9.023438 1.84375 -9.921875 C 2.195312 -10.816406 2.660156 -11.5625 3.234375 -12.15625 C 3.816406 -12.75 4.484375 -13.191406 5.234375 -13.484375 C 5.984375 -13.785156 6.75 -13.9375 7.53125 -13.9375 C 9.363281 -13.9375 10.765625 -13.363281 11.734375 -12.21875 C 12.710938 -11.082031 13.203125 -9.347656 13.203125 -7.015625 C 13.203125 -6.910156 13.203125 -6.773438 13.203125 -6.609375 C 13.203125 -6.441406 13.195312 -6.285156 13.1875 -6.140625 L 3.875 -6.140625 C 3.976562 -4.734375 4.382812 -3.660156 5.09375 -2.921875 C 5.8125 -2.191406 6.929688 -1.828125 8.453125 -1.828125 C 9.304688 -1.828125 10.023438 -1.898438 10.609375 -2.046875 C 11.191406 -2.203125 11.628906 -2.347656 11.921875 -2.484375 L 12.265625 -0.4375 C 11.972656 -0.28125 11.453125 -0.117188 10.703125 0.046875 C 9.960938 0.222656 9.125 0.3125 8.1875 0.3125 C 7 0.3125 5.972656 0.132812 5.109375 -0.21875 C 4.242188 -0.582031 3.53125 -1.078125 2.96875 -1.703125 C 2.414062 -2.328125 2.003906 -3.070312 1.734375 -3.9375 C 1.460938 -4.800781 1.328125 -5.75 1.328125 -6.78125 Z M 10.671875 -8.109375 C 10.691406 -9.203125 10.414062 -10.101562 9.84375 -10.8125 C 9.28125 -11.519531 8.5 -11.875 7.5 -11.875 C 6.945312 -11.875 6.457031 -11.765625 6.03125 -11.546875 C 5.601562 -11.328125 5.238281 -11.039062 4.9375 -10.6875 C 4.644531 -10.34375 4.414062 -9.941406 4.25 -9.484375 C 4.082031 -9.035156 3.972656 -8.578125 3.921875 -8.109375 Z M 10.671875 -8.109375 "/></g></g></g><g fill="#000000" fill-opacity="1"><g transform="translate(184.309514, 32.277923)"><g><path d="M 7.109375 -13.890625 C 7.316406 -13.890625 7.554688 -13.875 7.828125 -13.84375 C 8.097656 -13.820312 8.363281 -13.785156 8.625 -13.734375 C 8.894531 -13.691406 9.132812 -13.648438 9.34375 -13.609375 C 9.5625 -13.566406 9.722656 -13.53125 9.828125 -13.5 L 9.421875 -11.375 C 9.222656 -11.445312 8.898438 -11.53125 8.453125 -11.625 C 8.015625 -11.71875 7.445312 -11.765625 6.75 -11.765625 C 6.289062 -11.765625 5.835938 -11.71875 5.390625 -11.625 C 4.953125 -11.53125 4.664062 -11.46875 4.53125 -11.4375 L 4.53125 0 L 2.09375 0 L 2.09375 -13.03125 C 2.664062 -13.238281 3.378906 -13.429688 4.234375 -13.609375 C 5.085938 -13.796875 6.046875 -13.890625 7.109375 -13.890625 Z M 7.109375 -13.890625 "/></g></g></g></svg>