<svg xmlns="http://www.w3.org/2000/svg" xmlns:xlink="http://www.w3.org/1999/xlink" width="500" zoomAndPan="magnify" viewBox="0 0 375 374.999991" height="500" preserveAspectRatio="xMidYMid meet" version="1.0"><defs><clipPath id="5f0e9a7459"><path d="M 56.167969 90 L 272.558594 90 L 272.558594 310.875 L 56.167969 310.875 Z M 56.167969 90 " clip-rule="nonzero"/></clipPath><clipPath id="db3a47bc8f"><path d="M 251 96 L 318.640625 96 L 318.640625 136.976562 L 251 136.976562 Z M 251 96 " clip-rule="nonzero"/></clipPath></defs><g clip-path="url(#5f0e9a7459)"><path fill="#a0183f" d="M 232.496094 139.734375 C 275.34375 188.8125 286.859375 240.605469 250.265625 279.296875 C 201.363281 331 127.601562 313.640625 87.675781 267.332031 C 45.132812 217.988281 39.03125 140.519531 111.175781 94.722656 C 128.121094 83.96875 189.648438 90.660156 232.496094 139.734375 " fill-opacity="1" fill-rule="nonzero"/></g><path fill="#f0313d" d="M 243.082031 131.273438 C 285.292969 179.625 287.835938 246.480469 248.761719 280.613281 C 209.683594 314.738281 143.789062 303.214844 101.574219 254.867188 C 59.363281 206.519531 56.820312 139.660156 95.898438 105.53125 C 134.972656 71.402344 200.867188 82.925781 243.082031 131.273438 " fill-opacity="1" fill-rule="nonzero"/><path fill="#ffffff" d="M 228.929688 143.632812 C 262.699219 182.3125 264.734375 235.800781 233.472656 263.105469 C 202.210938 290.40625 149.492188 281.1875 115.726562 242.507812 C 81.957031 203.828125 79.921875 150.34375 111.183594 123.039062 C 142.441406 95.734375 195.160156 104.957031 228.929688 143.632812 " fill-opacity="1" fill-rule="nonzero"/><path fill="#f0313d" d="M 214.78125 155.992188 C 240.105469 185 241.632812 225.117188 218.1875 245.59375 C 194.742188 266.074219 155.203125 259.160156 129.875 230.148438 C 104.550781 201.140625 103.023438 161.023438 126.46875 140.546875 C 149.914062 120.070312 189.453125 126.984375 214.78125 155.992188 " fill-opacity="1" fill-rule="nonzero"/><path fill="#ffffff" d="M 200.457031 168.503906 C 217.34375 187.84375 218.359375 214.585938 202.726562 228.238281 C 187.097656 241.890625 160.738281 237.28125 143.851562 217.941406 C 126.96875 198.601562 125.953125 171.855469 141.582031 158.207031 C 157.210938 144.554688 183.570312 149.164062 200.457031 168.503906 " fill-opacity="1" fill-rule="nonzero"/><path fill="#f0313d" d="M 186.476562 180.710938 C 194.921875 190.382812 195.429688 203.753906 187.613281 210.578125 C 179.800781 217.40625 166.621094 215.097656 158.175781 205.429688 C 149.734375 195.761719 149.226562 182.390625 157.039062 175.5625 C 164.855469 168.738281 178.035156 171.042969 186.476562 180.710938 " fill-opacity="1" fill-rule="nonzero"/><g clip-path="url(#db3a47bc8f)"><path fill="#999999" d="M 318.640625 103.203125 L 304.628906 115.46875 L 282.8125 109.921875 L 298.613281 117.460938 L 287.757812 126.960938 L 270.082031 122.652344 L 281.179688 128.335938 L 271.886719 136.46875 L 251.128906 130.871094 L 292.222656 96.492188 L 318.640625 103.203125 " fill-opacity="1" fill-rule="nonzero"/></g><path fill="#999999" d="M 280.175781 60.117188 L 283.265625 86.691406 L 243.59375 121.796875 L 241.011719 102.050781 L 250.304688 93.917969 L 254.460938 105.675781 L 252.535156 87.582031 L 263.394531 78.078125 L 268.765625 94.742188 L 266.164062 72.378906 L 280.175781 60.117188 " fill-opacity="1" fill-rule="nonzero"/><path fill="#d9d9d9" d="M 254.5 275.050781 L 254.503906 275.046875 L 254.5 275.050781 M 257.191406 271.996094 L 257.195312 271.992188 L 257.191406 271.996094 M 258.382812 270.539062 C 258.382812 270.535156 258.382812 270.535156 258.382812 270.535156 L 258.382812 270.539062 " fill-opacity="1" fill-rule="nonzero"/><path fill="#cc2a34" d="M 252.253906 277.363281 L 235.832031 260.933594 C 238.84375 258.011719 241.511719 254.832031 243.832031 251.433594 L 260.347656 267.957031 L 259.394531 269.234375 L 258.382812 270.535156 C 258.382812 270.535156 258.382812 270.535156 258.382812 270.539062 L 257.195312 271.992188 L 257.191406 271.996094 L 254.503906 275.046875 L 254.5 275.050781 L 252.253906 277.363281 " fill-opacity="1" fill-rule="nonzero"/><path fill="#d9d9d9" d="M 235.832031 260.933594 L 219.40625 244.492188 C 222.484375 241.605469 225.101562 238.359375 227.25 234.839844 L 243.832031 251.433594 C 241.511719 254.832031 238.84375 258.011719 235.832031 260.933594 " fill-opacity="1" fill-rule="nonzero"/><path fill="#cc2a34" d="M 219.40625 244.492188 L 202.960938 228.035156 C 206.160156 225.183594 208.644531 221.777344 210.425781 218 L 227.25 234.839844 C 225.101562 238.359375 222.484375 241.605469 219.40625 244.492188 " fill-opacity="1" fill-rule="nonzero"/><path fill="#d9d9d9" d="M 202.960938 228.035156 L 186.445312 211.503906 C 186.847656 211.21875 187.238281 210.910156 187.613281 210.578125 C 190.589844 207.980469 192.359375 204.433594 192.941406 200.503906 L 210.425781 218 C 208.644531 221.777344 206.160156 225.183594 202.960938 228.035156 " fill-opacity="1" fill-rule="nonzero"/><path fill="#cc2a34" d="M 186.445312 211.503906 L 170.898438 195.949219 C 171.457031 196.414062 172.066406 196.820312 172.71875 197.15625 C 173.957031 197.792969 175.347656 198.179688 176.832031 198.25 L 184.222656 191.777344 L 192.941406 200.503906 C 192.359375 204.433594 190.589844 207.980469 187.613281 210.578125 C 187.238281 210.910156 186.847656 211.21875 186.445312 211.503906 " fill-opacity="1" fill-rule="nonzero"/><path fill="#cccccc" d="M 305.144531 85.957031 L 176.832031 198.25 C 171.164062 197.996094 166.855469 193.066406 167.355469 187.417969 L 295.667969 75.125 L 305.144531 85.957031 " fill-opacity="1" fill-rule="nonzero"/><path fill="#d9d9d9" d="M 305.144531 85.957031 L 300.40625 80.542969 L 305.144531 85.957031 " fill-opacity="1" fill-rule="nonzero"/><path fill="#ae242c" d="M 176.832031 198.25 C 175.347656 198.179688 173.957031 197.792969 172.71875 197.15625 C 173.957031 197.792969 175.347656 198.179688 176.832031 198.25 L 184.222656 191.777344 L 176.832031 198.25 " fill-opacity="1" fill-rule="nonzero"/><path fill="#aeaeae" d="M 176.832031 198.25 C 175.347656 198.179688 173.957031 197.792969 172.71875 197.15625 C 171.597656 196.578125 170.601562 195.792969 169.78125 194.855469 L 300.40625 80.542969 L 305.144531 85.957031 L 292.910156 96.664062 L 253.1875 131.425781 L 184.222656 191.777344 L 176.832031 198.25 " fill-opacity="1" fill-rule="nonzero"/><path fill="#999999" d="M 303.5625 77.777344 C 306.179688 80.765625 306.890625 84.429688 305.144531 85.957031 C 303.398438 87.484375 299.863281 86.296875 297.246094 83.304688 C 294.628906 80.316406 293.921875 76.652344 295.667969 75.125 C 297.410156 73.597656 300.945312 74.785156 303.5625 77.777344 " fill-opacity="1" fill-rule="nonzero"/><path fill="#808080" d="M 304.707031 99.664062 L 292.921875 96.667969 L 253.246094 131.441406 L 264.875 134.578125 L 275.382812 125.367188 L 270.082031 122.652344 L 276.652344 124.253906 L 289.410156 113.070312 L 282.8125 109.921875 L 290.710938 111.929688 L 304.707031 99.664062 " fill-opacity="1" fill-rule="nonzero"/></svg>